# xmcd CD database file
#
# Track frame offsets:
#	150
#	17366
#	36167
#	48980
#	66697
#	79044
#	101129
#	119254
#	137490
#
# Disc length: 2045 seconds
#
# Revision: 0
# Processed by: cddbd v1.5.2PL0 Copyright (c) Steve Scherf et al.
# Submitted via: CDex 1.79
#
DISCID=7407fb09
DTITLE=Travis Kidd - Midamerica
DYEAR=2008
DGENRE=Country
TTITLE0=Towman
TTITLE1=Oklahoma Sunset
TTITLE2=Maxine`s Tap Room Boogie
TTITLE3=Anticipation
TTITLE4=Lawyers, Guns and Money
TTITLE5=Tupelo Honey
TTITLE6=Let Go Tonight
TTITLE7=Oklahoma Sunset (acoustic version)
TTITLE8=Midamerica
EXTD=YEAR: 2008
EXTT0=
EXTT1=
EXTT2=
EXTT3=
EXTT4=
EXTT5=
EXTT6=
EXTT7=
EXTT8=
PLAYORDER=
